<mxfile host="app.diagrams.net" modified="2021-12-11T03:05:38.914Z" agent="5.0 (Macintosh; Intel Mac OS X 10_15_7) AppleWebKit/537.36 (KHTML, like Gecko) Chrome/96.0.4664.93 Safari/537.36" etag="hxUHSNkCZD447DNRDpZo" version="14.9.9" type="github">
  <diagram id="hsFBELTAD5HaiAr0OHzU" name="Page-1">
    <mxGraphModel dx="962" dy="711" grid="1" gridSize="10" guides="1" tooltips="1" connect="1" arrows="1" fold="1" page="1" pageScale="1" pageWidth="4681" pageHeight="3300" math="0" shadow="0">
      <root>
        <mxCell id="0" />
        <mxCell id="1" parent="0" />
        <mxCell id="92bmeIexBa9WLSETEBZI-79" value="" style="shape=table;startSize=0;container=1;collapsible=0;childLayout=tableLayout;fontFamily=Tahoma;fontSize=13;strokeWidth=6;perimeterSpacing=0;strokeColor=none;" vertex="1" parent="1">
          <mxGeometry x="170" y="90" width="420" height="280" as="geometry" />
        </mxCell>
        <mxCell id="92bmeIexBa9WLSETEBZI-80" value="" style="shape=partialRectangle;collapsible=0;dropTarget=0;pointerEvents=0;top=0;left=0;bottom=0;right=0;points=[[0,0.5],[1,0.5]];portConstraint=eastwest;fontFamily=Tahoma;fontSize=13;strokeWidth=6;perimeterSpacing=0;fillColor=#FFFFFF;" vertex="1" parent="92bmeIexBa9WLSETEBZI-79">
          <mxGeometry width="420" height="40" as="geometry" />
        </mxCell>
        <mxCell id="92bmeIexBa9WLSETEBZI-81" value="" style="shape=partialRectangle;html=1;whiteSpace=wrap;connectable=0;overflow=hidden;fillColor=#1ba1e2;top=0;left=0;bottom=0;right=0;pointerEvents=1;fontColor=#ffffff;fontFamily=Tahoma;fontSize=13;strokeWidth=6;perimeterSpacing=0;strokeColor=none;" vertex="1" parent="92bmeIexBa9WLSETEBZI-80">
          <mxGeometry width="60" height="40" as="geometry" />
        </mxCell>
        <mxCell id="92bmeIexBa9WLSETEBZI-82" value="1" style="shape=partialRectangle;html=1;whiteSpace=wrap;connectable=0;overflow=hidden;fillColor=#1ba1e2;top=0;left=0;bottom=0;right=0;pointerEvents=1;fontColor=#ffffff;fontFamily=Tahoma;fontSize=13;strokeWidth=6;perimeterSpacing=0;strokeColor=none;" vertex="1" parent="92bmeIexBa9WLSETEBZI-80">
          <mxGeometry x="60" width="60" height="40" as="geometry" />
        </mxCell>
        <mxCell id="92bmeIexBa9WLSETEBZI-83" value="2" style="shape=partialRectangle;html=1;whiteSpace=wrap;connectable=0;overflow=hidden;fillColor=#1ba1e2;top=0;left=0;bottom=0;right=0;pointerEvents=1;fontColor=#ffffff;fontFamily=Tahoma;fontSize=13;strokeWidth=6;perimeterSpacing=0;strokeColor=none;" vertex="1" parent="92bmeIexBa9WLSETEBZI-80">
          <mxGeometry x="120" width="60" height="40" as="geometry" />
        </mxCell>
        <mxCell id="92bmeIexBa9WLSETEBZI-84" value="3" style="shape=partialRectangle;html=1;whiteSpace=wrap;connectable=0;overflow=hidden;fillColor=#1ba1e2;top=0;left=0;bottom=0;right=0;pointerEvents=1;fontColor=#ffffff;fontFamily=Tahoma;fontSize=13;strokeWidth=6;perimeterSpacing=0;strokeColor=none;" vertex="1" parent="92bmeIexBa9WLSETEBZI-80">
          <mxGeometry x="180" width="60" height="40" as="geometry" />
        </mxCell>
        <mxCell id="92bmeIexBa9WLSETEBZI-85" value="4" style="shape=partialRectangle;html=1;whiteSpace=wrap;connectable=0;overflow=hidden;fillColor=#1ba1e2;top=0;left=0;bottom=0;right=0;pointerEvents=1;fontColor=#ffffff;fontFamily=Tahoma;fontSize=13;strokeWidth=6;perimeterSpacing=0;strokeColor=none;" vertex="1" parent="92bmeIexBa9WLSETEBZI-80">
          <mxGeometry x="240" width="60" height="40" as="geometry" />
        </mxCell>
        <mxCell id="92bmeIexBa9WLSETEBZI-86" value="5" style="shape=partialRectangle;html=1;whiteSpace=wrap;connectable=0;overflow=hidden;fillColor=#1ba1e2;top=0;left=0;bottom=0;right=0;pointerEvents=1;fontColor=#ffffff;fontFamily=Tahoma;fontSize=13;strokeWidth=6;perimeterSpacing=0;strokeColor=none;" vertex="1" parent="92bmeIexBa9WLSETEBZI-80">
          <mxGeometry x="300" width="60" height="40" as="geometry" />
        </mxCell>
        <mxCell id="92bmeIexBa9WLSETEBZI-87" value="6" style="shape=partialRectangle;html=1;whiteSpace=wrap;connectable=0;overflow=hidden;fillColor=#1ba1e2;top=0;left=0;bottom=0;right=0;pointerEvents=1;fontColor=#ffffff;fontFamily=Tahoma;fontSize=13;strokeWidth=6;perimeterSpacing=0;strokeColor=none;" vertex="1" parent="92bmeIexBa9WLSETEBZI-80">
          <mxGeometry x="360" width="60" height="40" as="geometry" />
        </mxCell>
        <mxCell id="92bmeIexBa9WLSETEBZI-89" value="" style="shape=partialRectangle;collapsible=0;dropTarget=0;pointerEvents=0;fillColor=none;top=0;left=0;bottom=0;right=0;points=[[0,0.5],[1,0.5]];portConstraint=eastwest;fontFamily=Tahoma;fontSize=13;strokeWidth=6;perimeterSpacing=0;strokeColor=none;" vertex="1" parent="92bmeIexBa9WLSETEBZI-79">
          <mxGeometry y="40" width="420" height="40" as="geometry" />
        </mxCell>
        <mxCell id="92bmeIexBa9WLSETEBZI-90" value="我" style="shape=partialRectangle;html=1;whiteSpace=wrap;connectable=0;overflow=hidden;fillColor=#1ba1e2;top=0;left=0;bottom=0;right=0;pointerEvents=1;fontColor=#ffffff;fontFamily=Tahoma;fontSize=13;strokeWidth=6;perimeterSpacing=0;strokeColor=none;" vertex="1" parent="92bmeIexBa9WLSETEBZI-89">
          <mxGeometry width="60" height="40" as="geometry" />
        </mxCell>
        <mxCell id="92bmeIexBa9WLSETEBZI-91" value="1" style="shape=partialRectangle;html=1;whiteSpace=wrap;connectable=0;overflow=hidden;fillColor=#dae8fc;top=0;left=0;bottom=0;right=0;pointerEvents=1;fontFamily=Tahoma;fontSize=13;strokeWidth=6;perimeterSpacing=0;strokeColor=none;" vertex="1" parent="92bmeIexBa9WLSETEBZI-89">
          <mxGeometry x="60" width="60" height="40" as="geometry" />
        </mxCell>
        <mxCell id="92bmeIexBa9WLSETEBZI-92" value="0" style="shape=partialRectangle;html=1;whiteSpace=wrap;connectable=0;overflow=hidden;fillColor=#dae8fc;top=0;left=0;bottom=0;right=0;pointerEvents=1;fontFamily=Tahoma;fontSize=13;strokeWidth=6;perimeterSpacing=0;strokeColor=none;" vertex="1" parent="92bmeIexBa9WLSETEBZI-89">
          <mxGeometry x="120" width="60" height="40" as="geometry" />
        </mxCell>
        <mxCell id="92bmeIexBa9WLSETEBZI-93" value="0" style="shape=partialRectangle;html=1;whiteSpace=wrap;connectable=0;overflow=hidden;fillColor=#dae8fc;top=0;left=0;bottom=0;right=0;pointerEvents=1;fontFamily=Tahoma;fontSize=13;strokeWidth=6;perimeterSpacing=0;strokeColor=none;" vertex="1" parent="92bmeIexBa9WLSETEBZI-89">
          <mxGeometry x="180" width="60" height="40" as="geometry" />
        </mxCell>
        <mxCell id="92bmeIexBa9WLSETEBZI-94" value="0" style="shape=partialRectangle;html=1;whiteSpace=wrap;connectable=0;overflow=hidden;fillColor=#dae8fc;top=0;left=0;bottom=0;right=0;pointerEvents=1;fontFamily=Tahoma;fontSize=13;strokeWidth=6;perimeterSpacing=0;strokeColor=none;" vertex="1" parent="92bmeIexBa9WLSETEBZI-89">
          <mxGeometry x="240" width="60" height="40" as="geometry" />
        </mxCell>
        <mxCell id="92bmeIexBa9WLSETEBZI-95" value="0" style="shape=partialRectangle;html=1;whiteSpace=wrap;connectable=0;overflow=hidden;fillColor=#dae8fc;top=0;left=0;bottom=0;right=0;pointerEvents=1;fontFamily=Tahoma;fontSize=13;strokeWidth=6;perimeterSpacing=0;strokeColor=none;" vertex="1" parent="92bmeIexBa9WLSETEBZI-89">
          <mxGeometry x="300" width="60" height="40" as="geometry" />
        </mxCell>
        <mxCell id="92bmeIexBa9WLSETEBZI-96" value="0" style="shape=partialRectangle;html=1;whiteSpace=wrap;connectable=0;overflow=hidden;fillColor=#dae8fc;top=0;left=0;bottom=0;right=0;pointerEvents=1;fontFamily=Tahoma;fontSize=13;strokeWidth=6;perimeterSpacing=0;strokeColor=none;" vertex="1" parent="92bmeIexBa9WLSETEBZI-89">
          <mxGeometry x="360" width="60" height="40" as="geometry" />
        </mxCell>
        <mxCell id="92bmeIexBa9WLSETEBZI-98" value="" style="shape=partialRectangle;collapsible=0;dropTarget=0;pointerEvents=0;fillColor=none;top=0;left=0;bottom=0;right=0;points=[[0,0.5],[1,0.5]];portConstraint=eastwest;fontFamily=Tahoma;fontSize=13;strokeWidth=6;perimeterSpacing=0;strokeColor=none;" vertex="1" parent="92bmeIexBa9WLSETEBZI-79">
          <mxGeometry y="80" width="420" height="40" as="geometry" />
        </mxCell>
        <mxCell id="92bmeIexBa9WLSETEBZI-99" value="在" style="shape=partialRectangle;html=1;whiteSpace=wrap;connectable=0;overflow=hidden;fillColor=#1ba1e2;top=0;left=0;bottom=0;right=0;pointerEvents=1;fontColor=#ffffff;fontFamily=Tahoma;fontSize=13;strokeWidth=6;perimeterSpacing=0;strokeColor=none;" vertex="1" parent="92bmeIexBa9WLSETEBZI-98">
          <mxGeometry width="60" height="40" as="geometry" />
        </mxCell>
        <mxCell id="92bmeIexBa9WLSETEBZI-100" value="0" style="shape=partialRectangle;html=1;whiteSpace=wrap;connectable=0;overflow=hidden;fillColor=#dae8fc;top=0;left=0;bottom=0;right=0;pointerEvents=1;fontFamily=Tahoma;fontSize=13;strokeWidth=6;perimeterSpacing=0;strokeColor=none;" vertex="1" parent="92bmeIexBa9WLSETEBZI-98">
          <mxGeometry x="60" width="60" height="40" as="geometry" />
        </mxCell>
        <mxCell id="92bmeIexBa9WLSETEBZI-101" value="1" style="shape=partialRectangle;html=1;whiteSpace=wrap;connectable=0;overflow=hidden;fillColor=#dae8fc;top=0;left=0;bottom=0;right=0;pointerEvents=1;fontFamily=Tahoma;fontSize=13;strokeWidth=6;perimeterSpacing=0;strokeColor=none;" vertex="1" parent="92bmeIexBa9WLSETEBZI-98">
          <mxGeometry x="120" width="60" height="40" as="geometry" />
        </mxCell>
        <mxCell id="92bmeIexBa9WLSETEBZI-102" value="0" style="shape=partialRectangle;html=1;whiteSpace=wrap;connectable=0;overflow=hidden;fillColor=#dae8fc;top=0;left=0;bottom=0;right=0;pointerEvents=1;fontFamily=Tahoma;fontSize=13;strokeWidth=6;perimeterSpacing=0;strokeColor=none;" vertex="1" parent="92bmeIexBa9WLSETEBZI-98">
          <mxGeometry x="180" width="60" height="40" as="geometry" />
        </mxCell>
        <mxCell id="92bmeIexBa9WLSETEBZI-103" value="0" style="shape=partialRectangle;html=1;whiteSpace=wrap;connectable=0;overflow=hidden;fillColor=#dae8fc;top=0;left=0;bottom=0;right=0;pointerEvents=1;fontFamily=Tahoma;fontSize=13;strokeWidth=6;perimeterSpacing=0;strokeColor=none;" vertex="1" parent="92bmeIexBa9WLSETEBZI-98">
          <mxGeometry x="240" width="60" height="40" as="geometry" />
        </mxCell>
        <mxCell id="92bmeIexBa9WLSETEBZI-104" value="0" style="shape=partialRectangle;html=1;whiteSpace=wrap;connectable=0;overflow=hidden;fillColor=#dae8fc;top=0;left=0;bottom=0;right=0;pointerEvents=1;fontFamily=Tahoma;fontSize=13;strokeWidth=6;perimeterSpacing=0;strokeColor=none;" vertex="1" parent="92bmeIexBa9WLSETEBZI-98">
          <mxGeometry x="300" width="60" height="40" as="geometry" />
        </mxCell>
        <mxCell id="92bmeIexBa9WLSETEBZI-105" value="0" style="shape=partialRectangle;html=1;whiteSpace=wrap;connectable=0;overflow=hidden;fillColor=#dae8fc;top=0;left=0;bottom=0;right=0;pointerEvents=1;fontFamily=Tahoma;fontSize=13;strokeWidth=6;perimeterSpacing=0;strokeColor=none;" vertex="1" parent="92bmeIexBa9WLSETEBZI-98">
          <mxGeometry x="360" width="60" height="40" as="geometry" />
        </mxCell>
        <mxCell id="92bmeIexBa9WLSETEBZI-107" value="" style="shape=partialRectangle;collapsible=0;dropTarget=0;pointerEvents=0;fillColor=none;top=0;left=0;bottom=0;right=0;points=[[0,0.5],[1,0.5]];portConstraint=eastwest;fontFamily=Tahoma;fontSize=13;strokeWidth=6;perimeterSpacing=0;strokeColor=none;" vertex="1" parent="92bmeIexBa9WLSETEBZI-79">
          <mxGeometry y="120" width="420" height="40" as="geometry" />
        </mxCell>
        <mxCell id="92bmeIexBa9WLSETEBZI-108" value="家" style="shape=partialRectangle;html=1;whiteSpace=wrap;connectable=0;overflow=hidden;fillColor=#1ba1e2;top=0;left=0;bottom=0;right=0;pointerEvents=1;fontColor=#ffffff;fontFamily=Tahoma;fontSize=13;strokeWidth=6;perimeterSpacing=0;strokeColor=none;" vertex="1" parent="92bmeIexBa9WLSETEBZI-107">
          <mxGeometry width="60" height="40" as="geometry" />
        </mxCell>
        <mxCell id="92bmeIexBa9WLSETEBZI-109" value="0" style="shape=partialRectangle;html=1;whiteSpace=wrap;connectable=0;overflow=hidden;fillColor=#dae8fc;top=0;left=0;bottom=0;right=0;pointerEvents=1;fontFamily=Tahoma;fontSize=13;strokeWidth=6;perimeterSpacing=0;strokeColor=none;" vertex="1" parent="92bmeIexBa9WLSETEBZI-107">
          <mxGeometry x="60" width="60" height="40" as="geometry" />
        </mxCell>
        <mxCell id="92bmeIexBa9WLSETEBZI-110" value="0" style="shape=partialRectangle;html=1;whiteSpace=wrap;connectable=0;overflow=hidden;fillColor=#dae8fc;top=0;left=0;bottom=0;right=0;pointerEvents=1;fontFamily=Tahoma;fontSize=13;strokeWidth=6;perimeterSpacing=0;strokeColor=none;" vertex="1" parent="92bmeIexBa9WLSETEBZI-107">
          <mxGeometry x="120" width="60" height="40" as="geometry" />
        </mxCell>
        <mxCell id="92bmeIexBa9WLSETEBZI-111" value="1" style="shape=partialRectangle;html=1;whiteSpace=wrap;connectable=0;overflow=hidden;fillColor=#dae8fc;top=0;left=0;bottom=0;right=0;pointerEvents=1;fontFamily=Tahoma;fontSize=13;strokeWidth=6;perimeterSpacing=0;strokeColor=none;" vertex="1" parent="92bmeIexBa9WLSETEBZI-107">
          <mxGeometry x="180" width="60" height="40" as="geometry" />
        </mxCell>
        <mxCell id="92bmeIexBa9WLSETEBZI-112" value="0" style="shape=partialRectangle;html=1;whiteSpace=wrap;connectable=0;overflow=hidden;fillColor=#dae8fc;top=0;left=0;bottom=0;right=0;pointerEvents=1;fontFamily=Tahoma;fontSize=13;strokeWidth=6;perimeterSpacing=0;strokeColor=none;" vertex="1" parent="92bmeIexBa9WLSETEBZI-107">
          <mxGeometry x="240" width="60" height="40" as="geometry" />
        </mxCell>
        <mxCell id="92bmeIexBa9WLSETEBZI-113" value="0" style="shape=partialRectangle;html=1;whiteSpace=wrap;connectable=0;overflow=hidden;fillColor=#dae8fc;top=0;left=0;bottom=0;right=0;pointerEvents=1;fontFamily=Tahoma;fontSize=13;strokeWidth=6;perimeterSpacing=0;strokeColor=none;" vertex="1" parent="92bmeIexBa9WLSETEBZI-107">
          <mxGeometry x="300" width="60" height="40" as="geometry" />
        </mxCell>
        <mxCell id="92bmeIexBa9WLSETEBZI-114" value="0" style="shape=partialRectangle;html=1;whiteSpace=wrap;connectable=0;overflow=hidden;fillColor=#dae8fc;top=0;left=0;bottom=0;right=0;pointerEvents=1;fontFamily=Tahoma;fontSize=13;strokeWidth=6;perimeterSpacing=0;strokeColor=none;" vertex="1" parent="92bmeIexBa9WLSETEBZI-107">
          <mxGeometry x="360" width="60" height="40" as="geometry" />
        </mxCell>
        <mxCell id="92bmeIexBa9WLSETEBZI-116" value="" style="shape=partialRectangle;collapsible=0;dropTarget=0;pointerEvents=0;fillColor=none;top=0;left=0;bottom=0;right=0;points=[[0,0.5],[1,0.5]];portConstraint=eastwest;fontFamily=Tahoma;fontSize=13;strokeWidth=6;perimeterSpacing=0;strokeColor=none;" vertex="1" parent="92bmeIexBa9WLSETEBZI-79">
          <mxGeometry y="160" width="420" height="40" as="geometry" />
        </mxCell>
        <mxCell id="92bmeIexBa9WLSETEBZI-117" value="吃了" style="shape=partialRectangle;html=1;whiteSpace=wrap;connectable=0;overflow=hidden;fillColor=#1ba1e2;top=0;left=0;bottom=0;right=0;pointerEvents=1;fontColor=#ffffff;fontFamily=Tahoma;fontSize=13;strokeWidth=6;perimeterSpacing=0;strokeColor=none;" vertex="1" parent="92bmeIexBa9WLSETEBZI-116">
          <mxGeometry width="60" height="40" as="geometry" />
        </mxCell>
        <mxCell id="92bmeIexBa9WLSETEBZI-118" value="0" style="shape=partialRectangle;html=1;whiteSpace=wrap;connectable=0;overflow=hidden;fillColor=#dae8fc;top=0;left=0;bottom=0;right=0;pointerEvents=1;fontFamily=Tahoma;fontSize=13;strokeWidth=6;perimeterSpacing=0;strokeColor=none;" vertex="1" parent="92bmeIexBa9WLSETEBZI-116">
          <mxGeometry x="60" width="60" height="40" as="geometry" />
        </mxCell>
        <mxCell id="92bmeIexBa9WLSETEBZI-119" value="0" style="shape=partialRectangle;html=1;whiteSpace=wrap;connectable=0;overflow=hidden;fillColor=#dae8fc;top=0;left=0;bottom=0;right=0;pointerEvents=1;fontFamily=Tahoma;fontSize=13;strokeWidth=6;perimeterSpacing=0;strokeColor=none;" vertex="1" parent="92bmeIexBa9WLSETEBZI-116">
          <mxGeometry x="120" width="60" height="40" as="geometry" />
        </mxCell>
        <mxCell id="92bmeIexBa9WLSETEBZI-120" value="0" style="shape=partialRectangle;html=1;whiteSpace=wrap;connectable=0;overflow=hidden;fillColor=#dae8fc;top=0;left=0;bottom=0;right=0;pointerEvents=1;fontFamily=Tahoma;fontSize=13;strokeWidth=6;perimeterSpacing=0;strokeColor=none;" vertex="1" parent="92bmeIexBa9WLSETEBZI-116">
          <mxGeometry x="180" width="60" height="40" as="geometry" />
        </mxCell>
        <mxCell id="92bmeIexBa9WLSETEBZI-121" value="1" style="shape=partialRectangle;html=1;whiteSpace=wrap;connectable=0;overflow=hidden;fillColor=#dae8fc;top=0;left=0;bottom=0;right=0;pointerEvents=1;fontFamily=Tahoma;fontSize=13;strokeWidth=6;perimeterSpacing=0;strokeColor=none;" vertex="1" parent="92bmeIexBa9WLSETEBZI-116">
          <mxGeometry x="240" width="60" height="40" as="geometry" />
        </mxCell>
        <mxCell id="92bmeIexBa9WLSETEBZI-122" value="0" style="shape=partialRectangle;html=1;whiteSpace=wrap;connectable=0;overflow=hidden;fillColor=#dae8fc;top=0;left=0;bottom=0;right=0;pointerEvents=1;fontFamily=Tahoma;fontSize=13;strokeWidth=6;perimeterSpacing=0;strokeColor=none;" vertex="1" parent="92bmeIexBa9WLSETEBZI-116">
          <mxGeometry x="300" width="60" height="40" as="geometry" />
        </mxCell>
        <mxCell id="92bmeIexBa9WLSETEBZI-123" value="0" style="shape=partialRectangle;html=1;whiteSpace=wrap;connectable=0;overflow=hidden;fillColor=#dae8fc;top=0;left=0;bottom=0;right=0;pointerEvents=1;fontFamily=Tahoma;fontSize=13;strokeWidth=6;perimeterSpacing=0;strokeColor=none;" vertex="1" parent="92bmeIexBa9WLSETEBZI-116">
          <mxGeometry x="360" width="60" height="40" as="geometry" />
        </mxCell>
        <mxCell id="92bmeIexBa9WLSETEBZI-125" value="" style="shape=partialRectangle;collapsible=0;dropTarget=0;pointerEvents=0;fillColor=none;top=0;left=0;bottom=0;right=0;points=[[0,0.5],[1,0.5]];portConstraint=eastwest;fontFamily=Tahoma;fontSize=13;strokeWidth=6;perimeterSpacing=0;strokeColor=none;" vertex="1" parent="92bmeIexBa9WLSETEBZI-79">
          <mxGeometry y="200" width="420" height="40" as="geometry" />
        </mxCell>
        <mxCell id="92bmeIexBa9WLSETEBZI-126" value="一个" style="shape=partialRectangle;html=1;whiteSpace=wrap;connectable=0;overflow=hidden;fillColor=#1ba1e2;top=0;left=0;bottom=0;right=0;pointerEvents=1;fontColor=#ffffff;fontFamily=Tahoma;fontSize=13;strokeWidth=6;perimeterSpacing=0;strokeColor=none;" vertex="1" parent="92bmeIexBa9WLSETEBZI-125">
          <mxGeometry width="60" height="40" as="geometry" />
        </mxCell>
        <mxCell id="92bmeIexBa9WLSETEBZI-127" value="0" style="shape=partialRectangle;html=1;whiteSpace=wrap;connectable=0;overflow=hidden;fillColor=#dae8fc;top=0;left=0;bottom=0;right=0;pointerEvents=1;fontFamily=Tahoma;fontSize=13;strokeWidth=6;perimeterSpacing=0;strokeColor=none;" vertex="1" parent="92bmeIexBa9WLSETEBZI-125">
          <mxGeometry x="60" width="60" height="40" as="geometry" />
        </mxCell>
        <mxCell id="92bmeIexBa9WLSETEBZI-128" value="0" style="shape=partialRectangle;html=1;whiteSpace=wrap;connectable=0;overflow=hidden;fillColor=#dae8fc;top=0;left=0;bottom=0;right=0;pointerEvents=1;fontFamily=Tahoma;fontSize=13;strokeWidth=6;perimeterSpacing=0;strokeColor=none;" vertex="1" parent="92bmeIexBa9WLSETEBZI-125">
          <mxGeometry x="120" width="60" height="40" as="geometry" />
        </mxCell>
        <mxCell id="92bmeIexBa9WLSETEBZI-129" value="0" style="shape=partialRectangle;html=1;whiteSpace=wrap;connectable=0;overflow=hidden;fillColor=#dae8fc;top=0;left=0;bottom=0;right=0;pointerEvents=1;fontFamily=Tahoma;fontSize=13;strokeWidth=6;perimeterSpacing=0;strokeColor=none;" vertex="1" parent="92bmeIexBa9WLSETEBZI-125">
          <mxGeometry x="180" width="60" height="40" as="geometry" />
        </mxCell>
        <mxCell id="92bmeIexBa9WLSETEBZI-130" value="0" style="shape=partialRectangle;html=1;whiteSpace=wrap;connectable=0;overflow=hidden;fillColor=#dae8fc;top=0;left=0;bottom=0;right=0;pointerEvents=1;fontFamily=Tahoma;fontSize=13;strokeWidth=6;perimeterSpacing=0;strokeColor=none;" vertex="1" parent="92bmeIexBa9WLSETEBZI-125">
          <mxGeometry x="240" width="60" height="40" as="geometry" />
        </mxCell>
        <mxCell id="92bmeIexBa9WLSETEBZI-131" value="1" style="shape=partialRectangle;html=1;whiteSpace=wrap;connectable=0;overflow=hidden;fillColor=#dae8fc;top=0;left=0;bottom=0;right=0;pointerEvents=1;fontFamily=Tahoma;fontSize=13;strokeWidth=6;perimeterSpacing=0;strokeColor=none;" vertex="1" parent="92bmeIexBa9WLSETEBZI-125">
          <mxGeometry x="300" width="60" height="40" as="geometry" />
        </mxCell>
        <mxCell id="92bmeIexBa9WLSETEBZI-132" value="0" style="shape=partialRectangle;html=1;whiteSpace=wrap;connectable=0;overflow=hidden;fillColor=#dae8fc;top=0;left=0;bottom=0;right=0;pointerEvents=1;fontFamily=Tahoma;fontSize=13;strokeWidth=6;perimeterSpacing=0;strokeColor=none;" vertex="1" parent="92bmeIexBa9WLSETEBZI-125">
          <mxGeometry x="360" width="60" height="40" as="geometry" />
        </mxCell>
        <mxCell id="92bmeIexBa9WLSETEBZI-134" value="" style="shape=partialRectangle;collapsible=0;dropTarget=0;pointerEvents=0;fillColor=none;top=0;left=0;bottom=0;right=0;points=[[0,0.5],[1,0.5]];portConstraint=eastwest;fontFamily=Tahoma;fontSize=13;strokeWidth=6;perimeterSpacing=0;strokeColor=none;" vertex="1" parent="92bmeIexBa9WLSETEBZI-79">
          <mxGeometry y="240" width="420" height="40" as="geometry" />
        </mxCell>
        <mxCell id="92bmeIexBa9WLSETEBZI-135" value="苹果" style="shape=partialRectangle;html=1;whiteSpace=wrap;connectable=0;overflow=hidden;fillColor=#1ba1e2;top=0;left=0;bottom=0;right=0;pointerEvents=1;fontColor=#ffffff;fontFamily=Tahoma;fontSize=13;strokeWidth=6;perimeterSpacing=0;strokeColor=none;" vertex="1" parent="92bmeIexBa9WLSETEBZI-134">
          <mxGeometry width="60" height="40" as="geometry" />
        </mxCell>
        <mxCell id="92bmeIexBa9WLSETEBZI-136" value="0" style="shape=partialRectangle;html=1;whiteSpace=wrap;connectable=0;overflow=hidden;fillColor=#dae8fc;top=0;left=0;bottom=0;right=0;pointerEvents=1;fontFamily=Tahoma;fontSize=13;strokeWidth=6;perimeterSpacing=0;strokeColor=none;" vertex="1" parent="92bmeIexBa9WLSETEBZI-134">
          <mxGeometry x="60" width="60" height="40" as="geometry" />
        </mxCell>
        <mxCell id="92bmeIexBa9WLSETEBZI-137" value="0" style="shape=partialRectangle;html=1;whiteSpace=wrap;connectable=0;overflow=hidden;fillColor=#dae8fc;top=0;left=0;bottom=0;right=0;pointerEvents=1;fontFamily=Tahoma;fontSize=13;strokeWidth=6;perimeterSpacing=0;strokeColor=none;" vertex="1" parent="92bmeIexBa9WLSETEBZI-134">
          <mxGeometry x="120" width="60" height="40" as="geometry" />
        </mxCell>
        <mxCell id="92bmeIexBa9WLSETEBZI-138" value="0" style="shape=partialRectangle;html=1;whiteSpace=wrap;connectable=0;overflow=hidden;fillColor=#dae8fc;top=0;left=0;bottom=0;right=0;pointerEvents=1;fontFamily=Tahoma;fontSize=13;strokeWidth=6;perimeterSpacing=0;strokeColor=none;" vertex="1" parent="92bmeIexBa9WLSETEBZI-134">
          <mxGeometry x="180" width="60" height="40" as="geometry" />
        </mxCell>
        <mxCell id="92bmeIexBa9WLSETEBZI-139" value="0" style="shape=partialRectangle;html=1;whiteSpace=wrap;connectable=0;overflow=hidden;fillColor=#dae8fc;top=0;left=0;bottom=0;right=0;pointerEvents=1;fontFamily=Tahoma;fontSize=13;strokeWidth=6;perimeterSpacing=0;strokeColor=none;" vertex="1" parent="92bmeIexBa9WLSETEBZI-134">
          <mxGeometry x="240" width="60" height="40" as="geometry" />
        </mxCell>
        <mxCell id="92bmeIexBa9WLSETEBZI-140" value="0" style="shape=partialRectangle;html=1;whiteSpace=wrap;connectable=0;overflow=hidden;fillColor=#dae8fc;top=0;left=0;bottom=0;right=0;pointerEvents=1;fontFamily=Tahoma;fontSize=13;strokeWidth=6;perimeterSpacing=0;strokeColor=none;" vertex="1" parent="92bmeIexBa9WLSETEBZI-134">
          <mxGeometry x="300" width="60" height="40" as="geometry" />
        </mxCell>
        <mxCell id="92bmeIexBa9WLSETEBZI-141" value="1" style="shape=partialRectangle;html=1;whiteSpace=wrap;connectable=0;overflow=hidden;fillColor=#dae8fc;top=0;left=0;bottom=0;right=0;pointerEvents=1;fontFamily=Tahoma;fontSize=13;strokeWidth=6;perimeterSpacing=0;strokeColor=none;" vertex="1" parent="92bmeIexBa9WLSETEBZI-134">
          <mxGeometry x="360" width="60" height="40" as="geometry" />
        </mxCell>
      </root>
    </mxGraphModel>
  </diagram>
</mxfile>
